<svg xmlns="http://www.w3.org/2000/svg" width="32" height="32"><path d="M7.162 31.353a1.702 1.702 0 01-1.657-2.08l2.059-9.068-6.982-6.123a1.702 1.702 0 01.964-2.976l9.238-.839 3.652-8.547a1.7 1.7 0 013.128-.001l3.652 8.548 9.236.839c.68.061 1.253.521 1.464 1.169s.016 1.359-.497 1.807l-6.982 6.121 2.059 9.068a1.7 1.7 0 01-2.53 1.837L16 26.348l-7.966 4.763c-.269.16-.569.241-.872.241zM16 24.298c.303 0 .603.081.872.241l7.518 4.496-1.943-8.559a1.699 1.699 0 01.539-1.657l6.592-5.781-8.722-.792a1.697 1.697 0 01-1.413-1.031L16 3.149l-3.447 8.067c-.243.575-.783.97-1.409 1.027l-8.723.792 6.592 5.781c.472.413.679 1.048.539 1.659l-1.941 8.559 7.518-4.495c.269-.16.569-.241.872-.241zm-5.287-13.866l-.001.003zm10.571-.004l.001.003-.001-.003z"/></svg>