<svg xmlns="http://www.w3.org/2000/svg" width="32" height="32"><path d="M30.4 6.4h-6.933V4.267A2.67 2.67 0 0020.8 1.6h-9.6a2.67 2.67 0 00-2.667 2.667V6.4H1.6A1.6 1.6 0 000 8v11.872c.003.677.43 1.278 1.067 1.506V28.8a1.6 1.6 0 001.6 1.6h26.667a1.6 1.6 0 001.6-1.6v-7.422a1.608 1.608 0 001.067-1.506V8a1.6 1.6 0 00-1.6-1.6zM9.6 4.267a1.6 1.6 0 011.6-1.6h9.6a1.6 1.6 0 011.6 1.6V6.4h-1.067V4.267a.533.533 0 00-.533-.533h-9.6a.533.533 0 00-.533.533V6.4H9.6zM20.267 6.4h-8.533V4.8h8.533zm9.6 22.4a.533.533 0 01-.533.533H2.667a.533.533 0 01-.533-.533v-7.239l11.733 1.618v1.354a1.6 1.6 0 001.6 1.6h1.067a1.6 1.6 0 001.6-1.6v-1.354l11.733-1.618zm-12.8-4.267a.533.533 0 01-.533.533h-1.067a.533.533 0 01-.533-.533v-3.2c0-.295.239-.533.533-.533h1.067c.295 0 .533.239.533.533zm13.866-4.661a.534.534 0 01-.459.529l-12.341 1.702v-.769a1.6 1.6 0 00-1.6-1.6h-1.067a1.6 1.6 0 00-1.6 1.6v.769L1.525 20.401a.533.533 0 01-.459-.529V8c0-.295.239-.533.533-.533h28.8c.295 0 .533.239.533.533z"/></svg>