<svg aria-hidden="true" style="position: absolute; width: 0; height: 0; overflow: hidden;" version="1.1" xmlns="http://www.w3.org/2000/svg" xmlns:xlink="http://www.w3.org/1999/xlink">
<defs>
<symbol id="icon-suitcase" viewBox="0 0 32 32">
<title>suitcase</title>
<path d="M30.4 6.4h-6.933v-2.133c-0.002-1.472-1.195-2.665-2.667-2.667h-9.6c-1.472 0.002-2.665 1.195-2.667 2.667v2.133h-6.933c-0.884 0-1.6 0.716-1.6 1.6v11.872c0.003 0.677 0.43 1.278 1.067 1.506v7.422c0 0.884 0.716 1.6 1.6 1.6h26.667c0.884 0 1.6-0.716 1.6-1.6v-7.422c0.637-0.228 1.064-0.83 1.067-1.506v-11.872c0-0.884-0.716-1.6-1.6-1.6zM9.6 4.267c0-0.884 0.716-1.6 1.6-1.6h9.6c0.884 0 1.6 0.716 1.6 1.6v2.133h-1.067v-2.133c0-0.295-0.239-0.533-0.533-0.533h-9.6c-0.295 0-0.533 0.239-0.533 0.533v2.133h-1.067zM20.267 6.4h-8.533v-1.6h8.533zM29.867 28.8c0 0.295-0.239 0.533-0.533 0.533h-26.667c-0.295 0-0.533-0.239-0.533-0.533v-7.239l11.733 1.618v1.354c0 0.884 0.716 1.6 1.6 1.6h1.067c0.884 0 1.6-0.716 1.6-1.6v-1.354l11.733-1.618zM17.067 24.533c0 0.295-0.239 0.533-0.533 0.533h-1.067c-0.295 0-0.533-0.239-0.533-0.533v-3.2c0-0.295 0.239-0.533 0.533-0.533h1.067c0.295 0 0.533 0.239 0.533 0.533zM30.933 19.872c0 0.266-0.195 0.491-0.459 0.529l-12.341 1.702v-0.769c0-0.884-0.716-1.6-1.6-1.6h-1.067c-0.884 0-1.6 0.716-1.6 1.6v0.769l-12.341-1.702c-0.263-0.037-0.459-0.262-0.459-0.529v-11.872c0-0.295 0.239-0.533 0.533-0.533h28.8c0.295 0 0.533 0.239 0.533 0.533z"></path>
</symbol>
<symbol id="icon-star" viewBox="0 0 32 32">
<title>star</title>
<path d="M7.162 31.353c-0.351 0-0.699-0.109-0.996-0.324-0.553-0.401-0.812-1.091-0.661-1.756l2.059-9.068-6.982-6.123c-0.513-0.448-0.709-1.158-0.499-1.807 0.211-0.648 0.784-1.107 1.463-1.169l9.238-0.839 3.652-8.547c0.269-0.628 0.883-1.033 1.564-1.033s1.295 0.406 1.564 1.032l3.652 8.548 9.236 0.839c0.68 0.061 1.253 0.521 1.464 1.169s0.016 1.359-0.497 1.807l-6.982 6.121 2.059 9.068c0.151 0.667-0.108 1.356-0.661 1.756-0.552 0.4-1.288 0.431-1.869 0.081l-7.966-4.76-7.966 4.763c-0.269 0.16-0.569 0.241-0.872 0.241zM16 24.298c0.303 0 0.603 0.081 0.872 0.241l7.518 4.496-1.943-8.559c-0.139-0.609 0.068-1.245 0.539-1.657l6.592-5.781-8.722-0.792c-0.628-0.057-1.168-0.452-1.413-1.031l-3.443-8.066-3.447 8.067c-0.243 0.575-0.783 0.97-1.409 1.027l-8.723 0.792 6.592 5.781c0.472 0.413 0.679 1.048 0.539 1.659l-1.941 8.559 7.518-4.495c0.269-0.16 0.569-0.241 0.872-0.241zM10.713 10.432s0 0.001-0.001 0.003zM21.284 10.428l0.001 0.003c0-0.001 0-0.001-0.001-0.003z"></path>
</symbol>
<symbol id="icon-clock" viewBox="0 0 32 32">
<title>clock</title>
<path d="M16 0c-8.822 0-16 7.178-16 16s7.178 16 16 16 16-7.178 16-16-7.178-16-16-16zM16 30c-7.72 0-14-6.28-14-14s6.28-14 14-14 14 6.28 14 14-6.28 14-14 14z"></path>
<path d="M17 6h-2v10.414l6.293 6.293 1.414-1.414-5.707-5.707z"></path>
</symbol>
<symbol id="icon-heart" viewBox="0 0 32 32">
<title>heart</title>
<path d="M16 30.22c-0.456 0-0.895-0.165-1.237-0.465-1.293-1.13-2.539-2.193-3.639-3.13l-0.006-0.005c-3.224-2.747-6.008-5.12-7.945-7.457-2.165-2.613-3.174-5.090-3.174-7.796 0-2.629 0.902-5.055 2.539-6.831 1.657-1.797 3.929-2.786 6.401-2.786 1.847 0 3.539 0.584 5.028 1.736 0.751 0.581 1.433 1.293 2.033 2.123 0.6-0.83 1.281-1.541 2.033-2.123 1.489-1.152 3.181-1.736 5.028-1.736 2.471 0 4.744 0.99 6.401 2.786 1.637 1.776 2.538 4.201 2.538 6.831 0 2.706-1.008 5.184-3.174 7.796-1.937 2.337-4.721 4.71-7.944 7.457-1.102 0.938-2.35 2.002-3.645 3.136-0.342 0.299-0.782 0.464-1.237 0.464zM8.939 3.624c-1.942 0-3.725 0.775-5.023 2.182-1.317 1.428-2.042 3.403-2.042 5.56 0 2.276 0.846 4.312 2.743 6.6 1.833 2.212 4.56 4.536 7.717 7.227l0.006 0.005c1.104 0.941 2.355 2.007 3.657 3.146 1.31-1.141 2.563-2.209 3.669-3.151 3.157-2.691 5.884-5.014 7.717-7.226 1.896-2.289 2.742-4.324 2.742-6.6 0-2.157-0.725-4.132-2.042-5.56-1.297-1.407-3.081-2.182-5.023-2.182-1.422 0-2.728 0.452-3.881 1.344-1.028 0.795-1.743 1.8-2.163 2.503-0.216 0.362-0.596 0.577-1.016 0.577s-0.801-0.216-1.016-0.577c-0.419-0.703-1.135-1.708-2.163-2.503-1.153-0.892-2.459-1.344-3.881-1.344z"></path>
</symbol>
</defs>
</svg>
