<!-- Generated by IcoMoon.io -->
<svg version="1.1" xmlns="http://www.w3.org/2000/svg" width="32" height="32" viewBox="0 0 32 32">
<title>suitcase</title>
<path d="M30.4 6.4h-6.933v-2.133c-0.002-1.472-1.195-2.665-2.667-2.667h-9.6c-1.472 0.002-2.665 1.195-2.667 2.667v2.133h-6.933c-0.884 0-1.6 0.716-1.6 1.6v11.872c0.003 0.677 0.43 1.278 1.067 1.506v7.422c0 0.884 0.716 1.6 1.6 1.6h26.667c0.884 0 1.6-0.716 1.6-1.6v-7.422c0.637-0.228 1.064-0.83 1.067-1.506v-11.872c0-0.884-0.716-1.6-1.6-1.6zM9.6 4.267c0-0.884 0.716-1.6 1.6-1.6h9.6c0.884 0 1.6 0.716 1.6 1.6v2.133h-1.067v-2.133c0-0.295-0.239-0.533-0.533-0.533h-9.6c-0.295 0-0.533 0.239-0.533 0.533v2.133h-1.067zM20.267 6.4h-8.533v-1.6h8.533zM29.867 28.8c0 0.295-0.239 0.533-0.533 0.533h-26.667c-0.295 0-0.533-0.239-0.533-0.533v-7.239l11.733 1.618v1.354c0 0.884 0.716 1.6 1.6 1.6h1.067c0.884 0 1.6-0.716 1.6-1.6v-1.354l11.733-1.618zM17.067 24.533c0 0.295-0.239 0.533-0.533 0.533h-1.067c-0.295 0-0.533-0.239-0.533-0.533v-3.2c0-0.295 0.239-0.533 0.533-0.533h1.067c0.295 0 0.533 0.239 0.533 0.533zM30.933 19.872c0 0.266-0.195 0.491-0.459 0.529l-12.341 1.702v-0.769c0-0.884-0.716-1.6-1.6-1.6h-1.067c-0.884 0-1.6 0.716-1.6 1.6v0.769l-12.341-1.702c-0.263-0.037-0.459-0.262-0.459-0.529v-11.872c0-0.295 0.239-0.533 0.533-0.533h28.8c0.295 0 0.533 0.239 0.533 0.533z"></path>
</svg>
