<svg aria-hidden="true" style="position:absolute;width:0;height:0" xmlns="http://www.w3.org/2000/svg" overflow="hidden"><defs><symbol id="icon-suitcase" viewBox="0 0 32 32"><path d="M30.4 6.4h-6.933V4.267A2.67 2.67 0 0020.8 1.6h-9.6a2.67 2.67 0 00-2.667 2.667V6.4H1.6A1.6 1.6 0 000 8v11.872c.003.677.43 1.278 1.067 1.506V28.8a1.6 1.6 0 001.6 1.6h26.667a1.6 1.6 0 001.6-1.6v-7.422a1.608 1.608 0 001.067-1.506V8a1.6 1.6 0 00-1.6-1.6zM9.6 4.267a1.6 1.6 0 011.6-1.6h9.6a1.6 1.6 0 011.6 1.6V6.4h-1.067V4.267a.533.533 0 00-.533-.533h-9.6a.533.533 0 00-.533.533V6.4H9.6zM20.267 6.4h-8.533V4.8h8.533zm9.6 22.4a.533.533 0 01-.533.533H2.667a.533.533 0 01-.533-.533v-7.239l11.733 1.618v1.354a1.6 1.6 0 001.6 1.6h1.067a1.6 1.6 0 001.6-1.6v-1.354l11.733-1.618zm-12.8-4.267a.533.533 0 01-.533.533h-1.067a.533.533 0 01-.533-.533v-3.2c0-.295.239-.533.533-.533h1.067c.295 0 .533.239.533.533zm13.866-4.661a.534.534 0 01-.459.529l-12.341 1.702v-.769a1.6 1.6 0 00-1.6-1.6h-1.067a1.6 1.6 0 00-1.6 1.6v.769L1.525 20.401a.533.533 0 01-.459-.529V8c0-.295.239-.533.533-.533h28.8c.295 0 .533.239.533.533z"/></symbol><symbol id="icon-star" viewBox="0 0 32 32"><path d="M7.162 31.353a1.702 1.702 0 01-1.657-2.08l2.059-9.068-6.982-6.123a1.702 1.702 0 01.964-2.976l9.238-.839 3.652-8.547a1.7 1.7 0 013.128-.001l3.652 8.548 9.236.839c.68.061 1.253.521 1.464 1.169s.016 1.359-.497 1.807l-6.982 6.121 2.059 9.068a1.7 1.7 0 01-2.53 1.837L16 26.348l-7.966 4.763c-.269.16-.569.241-.872.241zM16 24.298c.303 0 .603.081.872.241l7.518 4.496-1.943-8.559a1.699 1.699 0 01.539-1.657l6.592-5.781-8.722-.792a1.697 1.697 0 01-1.413-1.031L16 3.149l-3.447 8.067c-.243.575-.783.97-1.409 1.027l-8.723.792 6.592 5.781c.472.413.679 1.048.539 1.659l-1.941 8.559 7.518-4.495c.269-.16.569-.241.872-.241zm-5.287-13.866l-.001.003zm10.571-.004l.001.003-.001-.003z"/></symbol><symbol id="icon-clock" viewBox="0 0 32 32"><path d="M16 0C7.178 0 0 7.178 0 16s7.178 16 16 16 16-7.178 16-16S24.822 0 16 0zm0 30C8.28 30 2 23.72 2 16S8.28 2 16 2s14 6.28 14 14-6.28 14-14 14z"/><path d="M17 6h-2v10.414l6.293 6.293 1.414-1.414L17 15.586z"/></symbol><symbol id="icon-heart" viewBox="0 0 32 32"><path d="M16 30.22c-.456 0-.895-.165-1.237-.465a374.562 374.562 0 00-3.639-3.13l-.006-.005c-3.224-2.747-6.008-5.12-7.945-7.457-2.165-2.613-3.174-5.09-3.174-7.796 0-2.629.902-5.055 2.539-6.831C4.195 2.739 6.467 1.75 8.939 1.75c1.847 0 3.539.584 5.028 1.736A10.288 10.288 0 0116 5.609c.6-.83 1.281-1.541 2.033-2.123 1.489-1.152 3.181-1.736 5.028-1.736 2.471 0 4.744.99 6.401 2.786C31.099 6.312 32 8.737 32 11.367c0 2.706-1.008 5.184-3.174 7.796-1.937 2.337-4.721 4.71-7.944 7.457-1.102.938-2.35 2.002-3.645 3.136A1.88 1.88 0 0116 30.22zM8.939 3.624c-1.942 0-3.725.775-5.023 2.182-1.317 1.428-2.042 3.403-2.042 5.56 0 2.276.846 4.312 2.743 6.6 1.833 2.212 4.56 4.536 7.717 7.227l.006.005c1.104.941 2.355 2.007 3.657 3.146a430.966 430.966 0 013.669-3.151c3.157-2.691 5.884-5.014 7.717-7.226 1.896-2.289 2.742-4.324 2.742-6.6 0-2.157-.725-4.132-2.042-5.56-1.297-1.407-3.081-2.182-5.023-2.182-1.422 0-2.728.452-3.881 1.344-1.028.795-1.743 1.8-2.163 2.503-.216.362-.596.577-1.016.577s-.801-.216-1.016-.577c-.419-.703-1.135-1.708-2.163-2.503-1.153-.892-2.459-1.344-3.881-1.344z"/></symbol></defs></svg>